<?xml version="1.0" encoding="UTF-8" standalone="no"?>
<svg xmlns="http://www.w3.org/2000/svg" viewBox="0 0 51.68 34.06" id="how_icon-01"> <path fill="#FFDF13" stroke="#FFDF13" stroke-width=".826" stroke-miterlimit="10" d="M.41 12.77c.26-.7.78-.97 1.5-.95.94.02 1.88.01 2.84.01V9.01C4.2 9 3.68 9.01 3.15 9c-.8-.02-1.33-.5-1.33-1.18 0-.65.51-1.13 1.28-1.18.28-.02.56 0 .84 0h.83c0-1.24.01-2.43 0-3.62 0-.64.15-1.21.57-1.7C5.81.77 6.4.46 7.11.44 7.66.43 8.2.43 8.75.43c7.67 0 15.34.04 23-.02 2.48-.02 4.71.63 6.77 1.92 4.23 2.66 7.51 6.2 9.73 10.7.78 1.58 1.07 3.3 1.43 4.99.54 2.51 1.03 5.02 1.53 7.54.31 1.53-.74 2.86-2.31 2.9-1.09.03-2.19.01-3.28.01h-.53c-.78 3.68-3.77 5.19-6.08 5.18-2.32-.01-5.28-1.55-6.03-5.16h-10.8c-.35 1.79-1.26 3.23-2.8 4.21-1.09.7-2.29 1.01-3.59.93-2.37-.14-5.01-1.81-5.68-5.17H7.49c-1.74 0-2.71-.96-2.72-2.7V14.17h-2.1c-.31 0-.63-.01-.94 0-.67.02-1.07-.34-1.32-.92v-.48zm6.77 1.41V26.1c.96 0 1.89.01 2.81-.01.12 0 .29-.17.35-.3.26-.51.42-1.09.75-1.56 1.43-2.05 3.43-3.01 5.91-2.66 2.43.35 4.09 1.76 4.9 4.1.12.34.28.45.63.44 3.3-.01 6.59-.02 9.89 0 .52 0 .76-.13.93-.66 1.08-3.2 4.97-4.86 8.05-3.48 1.68.75 2.81 1.99 3.41 3.73.05.15.19.37.3.37 1.25.03 2.51.02 3.8.02-.61-2.95-1.2-5.85-1.8-8.76H33.6c-1.26 0-1.63-.38-1.64-1.62V2.85H7.16v3.79h.57c1.9 0 3.81-.02 5.71.02.4.01.85.16 1.17.39.39.28.42.79.23 1.23-.18.51-.61.72-1.16.72h-6.5v2.82h14.03c1.02 0 1.57.42 1.57 1.18 0 .77-.53 1.17-1.57 1.17H7.8c-.2.01-.39.01-.62.01zm39.27.76C44.86 10.15 38.4 3.91 34.37 3.08v11.86h12.08zm-30.3 16.33c2.04.01 3.74-1.68 3.73-3.71 0-2.03-1.72-3.74-3.74-3.72-2.03.02-3.69 1.68-3.7 3.7-.02 2.04 1.66 3.72 3.71 3.73zm22.86 0c2.04.02 3.73-1.66 3.74-3.7.01-2.03-1.69-3.73-3.72-3.73-2.01 0-3.68 1.66-3.72 3.69-.04 2.01 1.65 3.72 3.7 3.74z"></path> </svg>