<?xml version="1.0" encoding="UTF-8" standalone="no"?>
<svg xmlns="http://www.w3.org/2000/svg" viewBox="0 0 136 89" id="how_icon-04"> <g stroke="none" stroke-width="1" fill="none" fill-rule="evenodd"> <g transform="translate(1.000000, 1.000000)" stroke="#FFE311"> <path d="M131.923,42.882 C130.151,41.098 127.268,41.092 125.486,42.868 L111.172,57.114 L111.172,28.639 L131.864,7.946 C132.753,7.057 133.198,5.892 133.198,4.728 C133.198,3.564 132.753,2.399 131.864,1.51 C130.086,-0.268 127.206,-0.268 125.427,1.51 L104.735,22.202 L29.165,22.202 L8.692,1.729 C6.917,-0.049 4.033,-0.049 2.254,1.729 C1.365,2.618 0.92,3.783 0.92,4.947 C0.92,6.112 1.365,7.276 2.254,8.165 L22.727,28.638 L22.727,57.113 L8.416,42.867 C6.632,41.092 3.752,41.098 1.976,42.881 C1.093,43.767 0.651,44.929 0.651,46.088 C0.651,47.259 1.099,48.429 1.991,49.318 L24.028,71.253 C24.155,71.38 24.286,71.505 24.429,71.617 C36.438,81.267 51.537,86.581 66.948,86.581 C82.359,86.581 97.459,81.264 109.471,71.614 L109.474,71.611 C109.598,71.513 109.717,71.407 109.832,71.291 L131.908,49.318 C132.803,48.43 133.25,47.259 133.248,46.091 C133.249,44.93 132.807,43.768 131.923,42.882 Z M31.833,65.838 L31.833,31.305 L102.068,31.305 L102.068,65.835 C91.864,73.458 79.766,77.476 66.949,77.476 C54.131,77.477 42.036,73.461 31.833,65.838 Z" stroke-width="2" fill="#FFE311" fill-rule="nonzero"></path> <g transform="translate(59.000000, 45.000000)" stroke-linecap="round" stroke-width="5"> <path d="M7.95,0.902 L7.95,15.651"></path> <path d="M15.325,8.277 L0.576,8.277"></path> </g> </g> </g> </svg>