<?xml version="1.0" encoding="UTF-8" standalone="no"?>
<svg xmlns="http://www.w3.org/2000/svg" viewBox="0 0 40.34 38.79" id="how_icon-02"> <g fill="#FFDF13"> <path d="M3.19 20.69H0c1.72-3.09 3.41-6.15 5.12-9.24 1.7 3.08 3.38 6.15 5.08 9.24H6.93c.09.61.15 1.2.27 1.77.67 3.32 2.2 6.16 4.68 8.47 2.2 2.05 4.79 3.35 7.78 3.76 4.45.61 8.38-.62 11.73-3.6 2.73-2.43 4.37-5.5 4.93-9.11.69-4.41-.26-8.47-2.92-12.07-2.21-2.98-5.15-4.89-8.8-5.68-.96-.21-1.94-.27-2.92-.3-.8-.02-1.36-.44-1.67-1.16-.51-1.17.17-2.53 1.38-2.73.43-.07.88-.04 1.31-.02 3.33.19 6.39 1.22 9.14 3.11 4.03 2.78 6.61 6.58 7.85 11.3.6 2.28.78 4.61.53 6.96-.62 5.64-3.13 10.26-7.64 13.74-2.32 1.79-4.95 2.92-7.84 3.41-6.61 1.12-12.99-1.5-17.1-6.51-2.34-2.85-3.76-6.12-4.29-9.77-.04-.26-.07-.52-.1-.77-.01-.26-.03-.52-.06-.8z"></path> <path d="M23.85 14.83v5.14c0 .16-.04.28-.16.4a714.38 714.38 0 0 0-6.01 6.27c-.73.77-1.77.76-2.47.31-.86-.55-1.09-1.84-.48-2.74.08-.12.17-.23.27-.33 1.64-1.71 3.27-3.42 4.91-5.12.11-.12.16-.23.16-.4-.01-2.87 0-5.73 0-8.6 0-.8.32-1.45 1.04-1.83 1.14-.6 2.54.16 2.7 1.45.02.16.03.33.03.49.01 1.66.01 3.31.01 4.96zm4.33-2.91c0-.73.57-1.31 1.28-1.31.71.01 1.27.6 1.26 1.33-.01.74-.57 1.31-1.28 1.3-.71 0-1.26-.58-1.26-1.32zm0 14.64c0-.73.56-1.32 1.27-1.32s1.27.58 1.27 1.31c0 .73-.56 1.32-1.27 1.32-.69.01-1.27-.59-1.27-1.31zm2.55-7.24c0-.74.57-1.32 1.28-1.31.71.01 1.27.59 1.26 1.33-.01.74-.56 1.31-1.28 1.3-.72 0-1.26-.57-1.26-1.32zm-7.72 11.02c0 .74-.56 1.32-1.27 1.32s-1.27-.58-1.27-1.32c0-.74.55-1.31 1.27-1.31s1.27.57 1.27 1.31z"></path> </g> </svg>