<?xml version="1.0" encoding="UTF-8" standalone="no"?>
<svg id="icon-purchase" viewBox="0 0 162 162">
<path d="M92.79 161.45c1.11 0 2.1-.79 2.34-1.89l2.72-12.22c.26-1.21 1.17-2.13 2.34-2.49 4.38-1.3 8.65-3.08 12.73-5.31 1.08-.59 2.38-.59 3.42.08l10.61 6.65c.94.59 2.19.45 2.98-.36l16.45-16.56c.81-.79.94-2.04.34-2.98L140 115.8c-.66-1.04-.68-2.34-.09-3.42.92-1.72 1.74-3.48 2.51-5.25.01 0 .02-.01.04-.01.1-.24.19-.49.29-.73.17-.42.33-.84.5-1.26.27-.69.54-1.38.79-2.07.2-.56.37-1.13.56-1.7.17-.54.37-1.07.53-1.61.36-1.17 1.28-2.08 2.47-2.36l12.2-2.81a2.417 2.417 0 001.89-2.36v-.06c0-.02.01-.04.01-.06l-.08-23.34c0-1.13-.79-2.1-1.89-2.34l-12.23-2.74c-1.19-.26-2.11-1.17-2.47-2.34-.71-2.35-1.56-4.66-2.53-6.94-.02.01-.05.01-.07.01-.82-1.92-1.73-3.81-2.74-5.66-.59-1.08-.57-2.38.08-3.42l6.65-10.61c.6-.96.45-2.19-.34-3l-16.56-16.45c-.81-.79-2.06-.93-3-.32l-10.57 6.72c-1.02.64-2.32.68-3.4.09-4.1-2.21-8.38-3.95-12.76-5.23a3.382 3.382 0 01-2.36-2.45L94.58 1.87A2.41 2.41 0 0092.22 0L68.88.08c-1.11 0-2.1.79-2.34 1.89l-2.72 12.22c-.26 1.21-1.17 2.13-2.34 2.49-4.38 1.3-8.65 3.08-12.73 5.31-1.08.59-2.38.59-3.42-.08l-10.61-6.65c-.94-.59-2.19-.45-2.98.36L15.29 32.17a2.38 2.38 0 00-.34 2.98l6.72 10.57c.66 1.04.68 2.34.09 3.42-.58 1.08-1.12 2.18-1.64 3.28-.02.01-.03.02-.05.04-.27.59-.5 1.19-.75 1.79-.25.59-.51 1.18-.74 1.77-.26.64-.5 1.29-.74 1.94-.37 1.03-.72 2.07-1.04 3.12-.07.23-.17.46-.23.7-.36 1.17-1.28 2.08-2.47 2.36L1.9 66.95a2.417 2.417 0 00-1.89 2.36v.06c0 .02-.01.04-.01.06l.08 23.34c0 1.13.79 2.1 1.89 2.34l12.24 2.74c1.19.26 2.11 1.17 2.47 2.34.76 2.52 1.69 5 2.75 7.45.03 0 .06.01.08.02.76 1.74 1.58 3.45 2.5 5.13.59 1.08.57 2.38-.08 3.42l-6.65 10.61c-.6.96-.45 2.19.34 3l16.56 16.45c.81.79 2.06.93 3 .32l10.57-6.72c1.02-.64 2.32-.68 3.4-.09 4.1 2.21 8.38 3.95 12.76 5.23 1.17.34 2.08 1.27 2.36 2.45l2.81 12.22a2.41 2.41 0 002.36 1.87l23.35-.1zm-56.5-80.68c0-24.64 19.98-44.68 44.55-44.68 24.57 0 44.55 20.04 44.55 44.68 0 24.63-19.98 44.68-44.55 44.68-24.57 0-44.55-20.05-44.55-44.68z" fill="#E6E7E8">
</path>
<path fill="#FFE130" d="M82.93 77.11l6.3 32.33 31.55-.68 5.72-30.46zM50.29 117.89h60.89v7.55H50.29z">
</path>
<path fill="#404041" d="M104.44 49.3h3.15v3.15h-3.15zM98.14 49.3h3.15v3.15h-3.15zM91.85 49.3H95v3.15h-3.15zM54.09 49.3h3.15v3.15h-3.15zM83.98 120.1h-6.29c-.87 0-1.57.7-1.57 1.57 0 .87.7 1.57 1.57 1.57h6.29c.87 0 1.57-.7 1.57-1.57.01-.87-.7-1.57-1.57-1.57z">
</path>
<path d="M127.68 76.62c-.3-.36-.75-.58-1.22-.58h-8.53l-4.06-7.03V41.43a7.885 7.885 0 00-7.87-7.87H55.66c-4.34 0-7.86 3.52-7.87 7.87v23.6h3.15V46.15h59.79v17.42l-1.78-3.09c-.28-.49-.8-.79-1.36-.8-.56 0-1.09.3-1.37.79-.28.49-.28 1.09.01 1.58l8.08 13.99H94.57l8.08-13.99c.43-.75.17-1.71-.58-2.14-.75-.43-1.71-.18-2.14.57l-8.99 15.57h-8.53c-.47 0-.92.21-1.22.58-.3.37-.42.85-.32 1.31l6.29 31.47c.15.73.79 1.26 1.54 1.26h22.03v4.72H50.94V102.8H47.8v17.31a7.885 7.885 0 007.87 7.87h50.35a7.885 7.885 0 007.87-7.87v-9.44h6.29c.75 0 1.39-.53 1.54-1.26L128 77.93c.1-.46-.02-.94-.32-1.31zM50.94 43.01v-1.57c0-2.61 2.11-4.72 4.72-4.72h50.35c2.61 0 4.72 2.11 4.72 4.72v1.57H50.94zm55.07 81.81H55.66c-2.61 0-4.72-2.11-4.72-4.72v-1.57h59.79v1.57c0 2.6-2.12 4.72-4.72 4.72zm0-45.63h7.87v28.32h-7.87V79.19zm-3.15 28.32H95V79.19h7.87v28.32h-.01zM84.33 79.19h7.52v28.32h-1.86l-5.66-28.32zm34.55 28.32h-1.86V79.19h7.52l-5.66 28.32z" fill="#404041">
</path>
<path d="M65.1 83.91c0-8.69-7.04-15.73-15.73-15.73-8.69 0-15.73 7.04-15.73 15.73 0 8.69 7.04 15.73 15.73 15.73 8.69-.01 15.72-7.04 15.73-15.73zm-28.32 0c0-6.95 5.64-12.59 12.59-12.59s12.59 5.64 12.59 12.59S56.33 96.5 49.37 96.5c-6.95-.01-12.58-5.64-12.59-12.59zM63.53 61.88h3.15v3.15h-3.15zM68.25 61.88h12.59v3.15H68.25zM63.53 66.6h3.15v3.15h-3.15zM68.25 66.6h12.59v3.15H68.25z" fill="#404041">
</path>
</svg>
