<?xml version="1.0" encoding="UTF-8" standalone="no"?>
<svg id="icon-guarantee" viewBox="0 0 163 163"><path d="M93.61 162.45c1.11 0 2.1-.79 2.34-1.89l2.72-12.22c.26-1.21 1.17-2.13 2.34-2.49 4.38-1.3 8.65-3.08 12.73-5.31 1.08-.59 2.38-.59 3.42.08l10.61 6.65c.94.59 2.19.45 2.98-.36l16.45-16.56c.81-.79.94-2.04.34-2.98l-6.72-10.57c-.66-1.04-.68-2.34-.09-3.42.92-1.72 1.74-3.48 2.51-5.25.01 0 .02-.01.04-.01.1-.24.19-.49.29-.73.17-.42.33-.84.49-1.26.27-.69.54-1.38.79-2.07.2-.56.37-1.13.56-1.7.17-.54.37-1.07.53-1.61.36-1.17 1.28-2.08 2.47-2.36l12.2-2.81a2.417 2.417 0 001.89-2.36v-.06c0-.02.01-.04.01-.06l-.08-23.34c0-1.13-.79-2.1-1.89-2.34l-12.23-2.74c-1.19-.26-2.11-1.17-2.47-2.34-.71-2.35-1.56-4.66-2.53-6.94-.02.01-.05.01-.07.01-.82-1.92-1.73-3.81-2.74-5.66-.59-1.08-.57-2.38.08-3.42l6.65-10.61c.6-.96.45-2.19-.34-3l-16.56-16.45c-.81-.79-2.06-.93-3-.32l-10.57 6.72c-1.02.64-2.32.68-3.4.09-4.1-2.21-8.38-3.95-12.76-5.23a3.382 3.382 0 01-2.36-2.45L95.43 2.86A2.41 2.41 0 0093.07.99l-23.34.08c-1.11 0-2.1.79-2.34 1.89l-2.72 12.22c-.26 1.21-1.17 2.13-2.34 2.49-4.38 1.3-8.65 3.08-12.73 5.31-1.08.59-2.38.59-3.42-.08l-10.61-6.65c-.94-.59-2.19-.45-2.98.36L16.14 33.17a2.38 2.38 0 00-.34 2.98l6.72 10.57c.66 1.04.68 2.34.09 3.42-.58 1.08-1.12 2.18-1.64 3.28-.02.01-.03.02-.05.04-.27.59-.5 1.19-.75 1.79-.25.59-.51 1.18-.74 1.77-.26.64-.5 1.29-.74 1.94-.38 1.03-.72 2.07-1.04 3.12-.07.23-.17.46-.23.7-.36 1.17-1.28 2.08-2.47 2.36l-12.2 2.81a2.417 2.417 0 00-1.89 2.36v.06c0 .02-.01.04-.01.06l.08 23.34c0 1.13.79 2.1 1.89 2.34l12.23 2.74c1.19.26 2.11 1.17 2.47 2.34.76 2.52 1.69 5 2.75 7.45.03 0 .06.01.08.02.76 1.74 1.58 3.45 2.5 5.13.59 1.08.57 2.38-.08 3.42l-6.65 10.61c-.6.96-.45 2.19.34 3l16.56 16.45c.81.79 2.06.93 3 .32l10.57-6.72c1.02-.64 2.32-.68 3.4-.09 4.1 2.21 8.38 3.95 12.76 5.23 1.17.34 2.08 1.27 2.36 2.45l2.81 12.22a2.41 2.41 0 002.36 1.87l23.33-.1zM37.1 81.77c0-24.64 19.98-44.68 44.55-44.68 24.57 0 44.55 20.04 44.55 44.68 0 24.63-19.98 44.68-44.55 44.68-24.57 0-44.55-20.05-44.55-44.68z" fill="#E6E7E8"></path><path d="M95.31 77.81c5.36 0 9.7 4.35 9.7 9.7 0 5.37-4.36 9.7-9.7 9.7-5.34 0-9.7-4.34-9.7-9.7 0-5.36 4.34-9.7 9.7-9.7z" fill="#FFE130"></path><path fill="#FFE130" d="M89.49 95.27v13.59l5.82-3.88 5.82 3.88V95.27z"></path><path d="M66.25 60.34c1.07 0 1.94-.87 1.94-1.94 0-1.07-.87-1.94-1.94-1.94-1.07 0-1.94.87-1.94 1.94 0 1.07.87 1.94 1.94 1.94z" fill="#404041"></path><g fill="#404041"><path d="M66.25 71.98c1.07 0 1.94-.87 1.94-1.94 0-1.07-.87-1.94-1.94-1.94-1.07 0-1.94.87-1.94 1.94 0 1.07.87 1.94 1.94 1.94z"></path><path d="M62.32 131.37h46.63c7.49 0 13.58-6.09 13.59-13.58 0-1.07-.87-1.95-1.94-1.95h-5.87V41.71c0-5.36-4.35-9.7-9.7-9.7H48.75a7.76 7.76 0 00-7.76 7.76v9.7c0 1.07.87 1.94 1.94 1.94h9.7v69.84c-.02 5.28 4 10.12 9.69 10.12zm46.49-3.88H70.09a9.678 9.678 0 001.94-5.83v-1.94h46.27c-.91 4.42-4.82 7.77-9.49 7.77zm2.03-85.78v74.14H70.08c-1.07 0-1.94.87-1.94 1.94v3.78c0 3.07-2.34 5.7-5.4 5.91-3.71.25-6.24-2.87-6.24-6.22v-81.5c0-1.4-.37-2.73-1.04-3.88h49.56c3.21 0 5.82 2.61 5.82 5.83zm-65.99 5.82v-7.68c0-2 1.48-3.74 3.47-3.95 2.3-.24 4.3 1.55 4.3 3.86v7.76h-7.77v.01z"></path></g><path d="M83.67 87.25c-.07 3.46 1.34 6.67 3.88 8.93v12.64c0 .51.18 1.01.53 1.38.68.7 1.72.79 2.49.28l4.75-3.16 4.75 3.16c.76.51 1.81.42 2.49-.28.35-.37.53-.87.53-1.37V96.18c2.48-2.21 3.88-5.31 3.88-8.67 0-6.63-5.56-11.98-12.27-11.63-6.06.31-10.9 5.32-11.03 11.37zm10.57 16.11l-2.81 1.87v-6.74c1.23.44 2.54.66 3.88.66 1.34 0 2.65-.23 3.88-.66v6.74l-2.81-1.87c-.64-.43-1.49-.43-2.14 0zm8.88-15.85c0 4.38-3.57 7.76-7.76 7.76-4.2 0-7.76-3.38-7.76-7.76 0-4.28 3.48-7.76 7.76-7.76 4.28 0 7.76 3.48 7.76 7.76zM66.25 48.69h34.94c1.07 0 1.94-.87 1.94-1.94 0-1.07-.87-1.94-1.94-1.94H66.25c-1.07 0-1.94.87-1.94 1.94 0 1.07.87 1.94 1.94 1.94zM74.01 60.34h27.17c1.07 0 1.94-.87 1.94-1.94 0-1.07-.87-1.94-1.94-1.94H74.01c-1.07 0-1.94.87-1.94 1.94 0 1.07.87 1.94 1.94 1.94zM74.01 71.98h27.17c1.07 0 1.94-.87 1.94-1.94 0-1.07-.87-1.94-1.94-1.94H74.01c-1.07 0-1.94.87-1.94 1.94 0 1.07.87 1.94 1.94 1.94zM66.25 95.27H77.9c1.07 0 1.94-.87 1.94-1.94 0-1.07-.87-1.94-1.94-1.94H66.25c-1.07 0-1.94.87-1.94 1.94 0 1.07.87 1.94 1.94 1.94zM66.25 83.63H77.9c1.07 0 1.94-.87 1.94-1.94 0-1.07-.87-1.94-1.94-1.94H66.25c-1.07 0-1.94.87-1.94 1.94 0 1.07.87 1.94 1.94 1.94zM66.25 106.92H77.9c1.07 0 1.94-.87 1.94-1.94 0-1.07-.87-1.94-1.94-1.94H66.25c-1.07 0-1.94.87-1.94 1.94 0 1.07.87 1.94 1.94 1.94z" fill="#404041"></path></svg>
