<?xml version="1.0" encoding="UTF-8" standalone="no"?>
<svg id="icon-money_back" viewBox="0 0 163 163">
<path d="M93.36 162.45c1.11 0 2.1-.79 2.34-1.89l2.72-12.22c.26-1.21 1.17-2.13 2.34-2.49 4.38-1.3 8.65-3.08 12.73-5.31 1.08-.59 2.38-.59 3.42.08l10.61 6.65c.94.59 2.19.45 2.98-.36l16.45-16.56c.81-.79.94-2.04.34-2.98l-6.72-10.57c-.66-1.04-.68-2.34-.09-3.42.92-1.72 1.74-3.48 2.51-5.25.01 0 .02-.01.04-.01.1-.24.19-.49.29-.73.17-.42.33-.84.5-1.26.27-.69.54-1.38.79-2.07.2-.56.37-1.13.56-1.7.17-.54.37-1.07.53-1.61.36-1.17 1.28-2.08 2.47-2.36l12.2-2.81a2.417 2.417 0 001.89-2.36v-.06c0-.02.01-.04.01-.06l-.08-23.34c0-1.13-.79-2.1-1.89-2.34l-12.23-2.74c-1.19-.26-2.11-1.17-2.47-2.34-.71-2.35-1.56-4.66-2.53-6.94-.02.01-.05.01-.07.01-.82-1.92-1.73-3.81-2.74-5.66-.59-1.08-.57-2.38.08-3.42l6.65-10.61c.6-.96.45-2.19-.34-3l-16.56-16.45c-.81-.79-2.06-.93-3-.32l-10.57 6.72c-1.02.64-2.32.68-3.4.09-4.1-2.21-8.38-3.95-12.76-5.23A3.382 3.382 0 0198 15.08L95.19 2.86A2.41 2.41 0 0092.83.99l-23.34.08c-1.11 0-2.1.79-2.34 1.89l-2.72 12.22c-.26 1.21-1.17 2.13-2.34 2.49-4.38 1.3-8.65 3.08-12.73 5.31-1.08.59-2.38.59-3.42-.08l-10.61-6.65c-.94-.59-2.19-.45-2.98.36L15.9 33.17a2.38 2.38 0 00-.34 2.98l6.72 10.57c.66 1.04.68 2.34.09 3.42-.58 1.08-1.12 2.18-1.64 3.28-.02.01-.03.02-.05.04-.27.59-.5 1.19-.75 1.79-.25.59-.51 1.18-.74 1.77-.26.64-.5 1.29-.74 1.94-.38 1.03-.72 2.07-1.04 3.12-.07.23-.17.46-.23.7-.36 1.17-1.28 2.08-2.47 2.36l-12.2 2.81a2.417 2.417 0 00-1.89 2.36v.06c0 .02-.01.04-.01.06l.08 23.34c0 1.13.79 2.1 1.89 2.34l12.24 2.74c1.19.26 2.11 1.17 2.47 2.34.76 2.52 1.69 5 2.75 7.45.03 0 .06.01.08.02.76 1.74 1.58 3.45 2.5 5.13.59 1.08.57 2.38-.08 3.42l-6.65 10.61c-.6.96-.45 2.19.34 3l16.56 16.45c.81.79 2.06.93 3 .32l10.57-6.72c1.02-.64 2.32-.68 3.4-.09 4.1 2.21 8.38 3.95 12.76 5.23 1.17.34 2.08 1.27 2.36 2.45l2.81 12.22a2.41 2.41 0 002.36 1.87l23.31-.1zM36.85 81.77c0-24.64 19.98-44.68 44.55-44.68 24.57 0 44.55 20.04 44.55 44.68 0 24.63-19.98 44.68-44.55 44.68-24.57 0-44.55-20.05-44.55-44.68z" fill="#E6E7E8">
</path>
<path d="M79.77 55.66c0-.55.15-1.06.39-1.51l-.37-.18a16.15 16.15 0 00-7.01-1.58c-9 0-16.32 7.32-16.32 16.32s7.32 16.32 16.32 16.32c2.27 0 4.46-.46 6.53-1.36l.46-.2V55.66zM84.66 83.4h8.16v16.32h-8.16z" fill="#FFE130">
</path>
<path d="M112.4 50.76H91.19V31.18h-35.9v44.1c-1.37-1.04-3.05-1.67-4.9-1.67-2.7 0-4.9 2.2-4.9 4.9v29.44c0 3.5 1.26 6.9 3.54 9.56l6.25 7.3v7.55h35.9v-7.72l4.59-8.04c1.27-2.22 1.94-4.74 1.94-7.29v-3.06h14.68c2.7 0 4.9-2.2 4.9-4.9V55.66c0-2.7-2.19-4.9-4.89-4.9zM58.56 34.45h29.37v16.32h-4.89c-2.7 0-4.9 2.2-4.9 4.9v6.17c-.02-.01-.04-.03-.05-.04v15.08h.05v24.47c0 .57.12 1.12.3 1.63H63.45v-2.19c0-2.18-.85-4.23-2.39-5.77l-2.5-2.5V34.45zm35.89 74.85c0 1.98-.52 3.95-1.5 5.67l-5.02 8.79v5.33H58.56v-5.5l-7.04-8.21a11.45 11.45 0 01-2.75-7.43V78.5c0-.9.73-1.63 1.63-1.63 2.7 0 4.9 2.2 4.9 4.9v12.1l3.46 3.46c.93.93 1.43 2.15 1.43 3.46v5.45h34.26v3.06zm6.53-6.32H83.03c-.9 0-1.63-.73-1.63-1.63V55.66c0-.9.73-1.63 1.63-1.63h17.95v48.95zm6.53 0h-3.26V54.03h3.26v48.95zm6.52-1.64c0 .9-.73 1.63-1.63 1.63h-1.63V54.03h1.63c.9 0 1.63.73 1.63 1.63v45.68z" fill="#404041">
</path>
<path fill="#404041" d="M84.66 89.92h3.26v3.26h-3.26zM84.66 83.4h3.26v3.26h-3.26zM84.66 96.45h3.26v3.26h-3.26zM91.19 83.4h3.26v16.32h-3.26zM65.08 40.97h3.26v-3.26h-6.53v6.53h3.26v-3.27zM81.4 44.24h3.26v-6.53h-6.53v3.26h3.26v3.27z">
</path>
<g fill="#404041">
</g>
</svg>