<?xml version="1.0" encoding="UTF-8" standalone="no"?>
<svg id="icon-reliability" viewBox="0 0 161.67 161.53"><path d="M92.79 161.45c1.11 0 2.1-.79 2.34-1.89l2.72-12.22c.26-1.21 1.17-2.13 2.34-2.49 4.38-1.3 8.65-3.08 12.73-5.31 1.08-.59 2.38-.59 3.42.08l10.61 6.65c.94.59 2.19.45 2.98-.36l16.45-16.56c.81-.79.94-2.04.34-2.98L140 115.8c-.66-1.04-.68-2.34-.09-3.42.92-1.72 1.74-3.48 2.51-5.25.01 0 .02-.01.04-.01.1-.24.19-.49.29-.73.17-.42.33-.84.5-1.26.27-.69.54-1.38.79-2.07.2-.56.37-1.13.56-1.7.17-.54.37-1.07.53-1.61.36-1.17 1.28-2.08 2.47-2.36l12.2-2.81a2.417 2.417 0 001.89-2.36v-.06c0-.02.01-.04.01-.06l-.08-23.34c0-1.13-.79-2.1-1.89-2.34l-12.23-2.74c-1.19-.26-2.11-1.17-2.47-2.34-.71-2.35-1.56-4.66-2.53-6.94-.02.01-.05.01-.07.01-.82-1.92-1.73-3.81-2.74-5.66-.59-1.08-.57-2.38.08-3.42l6.65-10.61c.6-.96.45-2.19-.34-3l-16.56-16.45c-.81-.79-2.06-.93-3-.32l-10.57 6.72c-1.02.64-2.32.68-3.4.09-4.1-2.21-8.38-3.95-12.76-5.23a3.382 3.382 0 01-2.36-2.45L94.58 1.87A2.41 2.41 0 0092.22 0L68.88.08c-1.11 0-2.1.79-2.34 1.89l-2.72 12.22c-.26 1.21-1.17 2.13-2.34 2.49-4.38 1.3-8.65 3.08-12.73 5.31-1.08.59-2.38.59-3.42-.08l-10.61-6.65c-.94-.59-2.19-.45-2.98.36L15.29 32.17a2.38 2.38 0 00-.34 2.98l6.72 10.57c.66 1.04.68 2.34.09 3.42-.58 1.08-1.12 2.18-1.64 3.28-.02.01-.03.02-.05.04-.27.59-.5 1.19-.75 1.79-.25.59-.51 1.18-.74 1.77-.26.64-.5 1.29-.74 1.94-.37 1.03-.72 2.07-1.04 3.12-.07.23-.17.46-.23.7-.36 1.17-1.28 2.08-2.47 2.36L1.9 66.95a2.417 2.417 0 00-1.89 2.36v.06c0 .02-.01.04-.01.06l.08 23.34c0 1.13.79 2.1 1.89 2.34l12.24 2.74c1.19.26 2.11 1.17 2.47 2.34.76 2.52 1.69 5 2.75 7.45.03 0 .06.01.08.02.76 1.74 1.58 3.45 2.5 5.13.59 1.08.57 2.38-.08 3.42l-6.65 10.61c-.6.96-.45 2.19.34 3l16.56 16.45c.81.79 2.06.93 3 .32l10.57-6.72c1.02-.64 2.32-.68 3.4-.09 4.1 2.21 8.38 3.95 12.76 5.23 1.17.34 2.08 1.27 2.36 2.45l2.81 12.22a2.41 2.41 0 002.36 1.87l23.35-.1zm-56.5-80.68c0-24.64 19.98-44.68 44.55-44.68s44.55 20.04 44.55 44.68c0 24.63-19.98 44.68-44.55 44.68S36.29 105.4 36.29 80.77z" fill-rule="evenodd" clip-rule="evenodd" fill="#e6e7e8"></path><path fill="#ffe130" d="M128.76 107.21h3.4v-9.93h-3.4c-1.29 0-2.44-.77-2.96-2.02-.5-1.2-.23-2.57.68-3.48l2.41-2.41-7.03-7.03-2.41 2.41c-.91.91-2.28 1.18-3.38.73l-.17-.08a3.158 3.158 0 01-1.96-2.93v-3.4h-3.31v9.98c0 1.14-.05 2.27-.14 3.4l.01-.01c4.76.74 8.41 4.86 8.41 9.82 0 5.48-4.45 9.93-9.93 9.93-1.57 0-3.05-.37-4.37-1.02l.03-.1a43.63 43.63 0 01-5.94 7.91l1.78-.15c.51-.04 1.03.04 1.41.19l.17.07c1.19.49 1.96 1.64 1.96 2.93v3.4h9.93v-3.4c0-1.29.77-2.44 2.02-2.96 1.2-.5 2.57-.24 3.48.68l2.41 2.41 7.03-7.03-2.41-2.41c-.91-.91-1.18-2.28-.65-3.55a3.164 3.164 0 012.93-1.95zm0 0M67.59 47.61c0-.83.32-1.58.82-2.16l-2.84-2.84-2.41 2.41c-.91.91-2.28 1.18-3.38.73l-.17-.08a3.158 3.158 0 01-1.96-2.93v-3.4h-9.93v3.4c0 1.29-.77 2.44-2.02 2.96-1.2.5-2.57.24-3.48-.68l-2.41-2.41-7.03 7.03 2.41 2.41c.91.91 1.18 2.28.65 3.55a3.158 3.158 0 01-2.93 1.96h-3.4v9.93h3.4c1.29 0 2.44.77 2.96 2.02.5 1.2.23 2.57-.68 3.48l-2.41 2.41 7.03 7.03L42.22 80c.91-.92 2.27-1.18 3.38-.72l.17.07c1.19.5 1.96 1.64 1.96 2.93v3.4h3.31V72.3c-4.69-.79-8.28-4.88-8.28-9.8 0-5.48 4.45-9.93 9.93-9.93 4.91 0 9 3.58 9.79 8.27 2.3-.02 4.58-.33 6.79-.9l.02-9.46a3.279 3.279 0 01-1.7-2.87zm0 0"></path><path fill="#404041" d="M128.85 36.02h-11.09l-1.9-1.27a31.81 31.81 0 00-17.68-5.35H85.8c-1.83 0-3.31 1.49-3.31 3.31 0 1.21.35 2.33.92 3.31h-9.2c-2.74 0-4.97 2.23-4.97 4.97 0 .65.13 1.28.36 1.85-2.11.57-3.68 2.49-3.68 4.78s1.57 4.2 3.68 4.78c-.23.57-.36 1.19-.36 1.85 0 1.39.57 2.64 1.5 3.54-2.26.75-4.61 1.2-6.98 1.34a11.552 11.552 0 00-11.07-8.19c-6.39 0-11.59 5.2-11.59 11.59 0 5.2 3.41 9.66 8.28 11.1v15.43c0 3.17.35 6.33 1.01 9.41-1.58.71-3.11 1.55-4.57 2.52l-1.9 1.27h-11.1c-1.83 0-3.31 1.49-3.31 3.31v19.87c0 1.83 1.49 3.31 3.31 3.31h9.93c1.34 0 2.49-.8 3.01-1.95 5.18 3.4 11.3 5.26 17.52 5.26h14.23c.68 0 1.33-.14 1.93-.39.29.1.57.21.86.3l.52.18.52-.17a45.154 45.154 0 0023.92-18.74c1.19.4 2.42.61 3.7.61 6.39 0 11.59-5.2 11.59-11.59 0-5.16-3.51-9.7-8.36-11.12.03-.69.08-1.38.08-2.08V62.6c1.25-.61 2.45-1.29 3.61-2.05a3.312 3.312 0 003.01 1.96h9.93c1.83 0 3.31-1.49 3.31-3.31V39.33c.03-1.83-1.45-3.31-3.28-3.31zm-54.64 3.31h20.15c1 0 1.9.46 2.52 1.23-.72.62-1.35 1.33-1.91 2.08H74.21c-.91 0-1.66-.74-1.66-1.66.01-.91.75-1.65 1.66-1.65zm10.21 15.3l-3.09-2.06h11.09v3.31h-5.9c-.71-.38-1.42-.8-2.1-1.25zM70.9 45.95h22.3c-.38 1.06-.61 2.17-.71 3.31H70.9c-.91 0-1.66-.74-1.66-1.66.01-.91.75-1.65 1.66-1.65zm3.31 9.93c-.91 0-1.66-.74-1.66-1.66 0-.91.74-1.66 1.66-1.66h6.12l-3.08 2.06c-.68.45-1.39.87-2.11 1.25h-.93zm-29.8 6.63c0-4.57 3.71-8.28 8.28-8.28 3.32 0 6.2 1.97 7.51 4.87a27.48 27.48 0 01-3.37-.43l-7.46-1.49v12.89c-2.95-1.29-4.96-4.2-4.96-7.56zm-1.66 62.91h-9.93v-19.87h9.93v19.87zm34.77 3.31H63.29c-6.2 0-12.28-2.07-17.22-5.8v-18.14l1.58-1.06c4.71-3.14 10.19-4.8 15.85-4.8h9.06c0 1.83-1.48 3.31-3.31 3.31h-4.98v3.31h19.88c.91 0 1.66.74 1.66 1.66s-.74 1.66-1.66 1.66H64.28v3.31h23.18c.91 0 1.66.74 1.66 1.66 0 .91-.74 1.66-1.66 1.66H64.28v3.31h19.87c.91 0 1.66.74 1.66 1.66 0 .91-.74 1.66-1.66 1.66H64.28v3.31h13.25c.91 0 1.66.74 1.66 1.66s-.75 1.63-1.67 1.63zM59.31 89.04V69.02c.95.07 1.91.11 2.86.11 6.3 0 12-1.29 17.01-3.81v36.93h-4.23c.57-.98.92-2.1.92-3.31 0-1.83-1.49-3.31-3.31-3.31H63.5c-1.18 0-2.35.09-3.52.22-.44-2.25-.67-4.52-.67-6.81zm33.09 24.58c-.1-2.19-1.61-4-3.65-4.56.23-.57.36-1.19.36-1.85 0-2.74-2.23-4.97-4.97-4.97h-1.66V65.31c5.01 2.53 10.72 3.81 17.01 3.81.95 0 1.9-.04 2.86-.11v20.02a35.14 35.14 0 01-9.95 24.59zm-10 14.41c.06-.31.1-.63.1-.95 0-.58-.12-1.14-.3-1.66h1.96c2.64 0 4.79-2.08 4.94-4.68 10.4-7.21 16.59-18.98 16.59-31.71V65.31l-1.86.24c-1.43.18-2.88.27-4.3.27-6.75 0-12.74-1.59-17.8-4.72l-.87-.54-.87.54c-5.06 3.13-11.04 4.72-17.8 4.72-1.43 0-2.87-.09-4.3-.27L56 65.31v23.74c0 2.46.24 4.91.71 7.31-1.08.24-2.14.54-3.19.89-.53-2.69-.82-5.44-.82-8.2V61.22l3.5.7c1.97.39 3.98.59 5.98.59 6.04 0 11.89-1.77 16.92-5.12l1.75-1.17 1.75 1.17a30.427 30.427 0 0016.92 5.12c2 0 4.02-.2 5.98-.59l3.5-.7v27.83a41.892 41.892 0 01-26.6 38.98zm34.86-25.79c0 4.57-3.71 8.28-8.28 8.28-.68 0-1.35-.09-1.99-.25a45.035 45.035 0 004.94-15.75c3.13 1.22 5.33 4.27 5.33 7.72zm-12.42-43.57c-3.01.6-6.09.65-9.1.22V50.3a9.51 9.51 0 013.07-7 8.583 8.583 0 006.22 2.65h.64v-3.31h-.64c-2.04 0-3.86-1.13-4.79-2.98a6.541 6.541 0 00-5.88-3.64h-5.25a3.32 3.32 0 01-3.31-3.31h12.37c5.66 0 11.14 1.66 15.85 4.8l1.58 1.06v18.15c-1.05.8-2.16 1.52-3.31 2.16v-1.7l-7.45 1.49zm24.01.53h-9.93V39.33h9.93V59.2zm0 0"></path><path fill="#404041" d="M107.04 49.7c-3.73.93-6.69 3.67-7.9 7.32l3.14 1.05c.86-2.57 2.94-4.5 5.57-5.15l1.54-.39-.8-3.21-1.55.38zm0 0M29.51 92.31h3.31v3.31h-3.31zM36.13 92.31h3.31v3.31h-3.31zM42.75 92.31h3.31v3.31h-3.31zM115.61 69.13h3.31v3.31h-3.31zM122.23 69.13h3.31v3.31h-3.31zM128.85 69.13h3.31v3.31h-3.31z"></path></svg>