<?xml version="1.0" encoding="UTF-8" standalone="no"?>
<svg id="icon-payment" viewBox="0 0 163 163"><path d="M93.41 162.35c1.11 0 2.1-.79 2.34-1.89l2.72-12.22c.26-1.21 1.17-2.13 2.34-2.49 4.38-1.3 8.65-3.08 12.73-5.31 1.08-.59 2.38-.59 3.42.08l10.61 6.65c.94.59 2.19.45 2.98-.36L147 130.25c.81-.79.94-2.04.34-2.98l-6.72-10.57c-.66-1.04-.68-2.34-.09-3.42.92-1.72 1.74-3.48 2.51-5.25.01 0 .02-.01.04-.01.1-.24.19-.49.29-.73.17-.42.33-.84.5-1.26.27-.69.54-1.38.79-2.07.2-.56.37-1.13.56-1.7.17-.54.37-1.07.53-1.61.36-1.17 1.28-2.08 2.47-2.36l12.2-2.81a2.417 2.417 0 001.89-2.36v-.06c0-.02.01-.04.01-.06l-.08-23.34c0-1.13-.79-2.1-1.89-2.34l-12.23-2.74c-1.19-.26-2.11-1.17-2.47-2.34-.71-2.35-1.56-4.66-2.53-6.94-.02.01-.05.01-.07.01-.82-1.92-1.73-3.81-2.74-5.66-.59-1.08-.57-2.38.08-3.42l6.65-10.61c.6-.96.45-2.19-.34-3l-16.56-16.45c-.81-.79-2.06-.93-3-.32l-10.57 6.72c-1.02.64-2.32.68-3.4.09-4.1-2.21-8.38-3.95-12.76-5.23a3.382 3.382 0 01-2.36-2.45L95.24 2.76A2.41 2.41 0 0092.88.89L69.54.97c-1.11 0-2.1.79-2.34 1.89l-2.72 12.22c-.26 1.21-1.17 2.13-2.34 2.49-4.38 1.3-8.65 3.08-12.73 5.31-1.08.59-2.38.59-3.42-.08l-10.61-6.65c-.94-.59-2.19-.45-2.98.36L15.95 33.07a2.38 2.38 0 00-.34 2.98l6.72 10.57c.66 1.04.68 2.34.09 3.42-.58 1.08-1.12 2.18-1.64 3.28-.02.01-.03.02-.05.04-.27.59-.5 1.19-.75 1.79-.25.59-.51 1.18-.74 1.77-.26.64-.5 1.29-.74 1.94-.38 1.03-.72 2.07-1.04 3.12-.07.23-.17.46-.23.7-.36 1.17-1.28 2.08-2.47 2.36l-12.2 2.81a2.417 2.417 0 00-1.89 2.36v.06c0 .02-.01.04-.01.06l.08 23.34c0 1.13.79 2.1 1.89 2.34l12.24 2.74c1.19.26 2.11 1.17 2.47 2.34.76 2.52 1.69 5 2.75 7.45.03 0 .06.01.08.02.76 1.74 1.58 3.45 2.5 5.13.59 1.08.57 2.38-.08 3.42l-6.65 10.61c-.6.96-.45 2.19.34 3l16.56 16.45c.81.79 2.06.93 3 .32l10.57-6.72c1.02-.64 2.32-.68 3.4-.09 4.1 2.21 8.38 3.95 12.76 5.23 1.17.34 2.08 1.27 2.36 2.45l2.81 12.22a2.41 2.41 0 002.36 1.87l23.31-.1zM36.9 81.66c0-24.64 19.98-44.68 44.55-44.68 24.56 0 44.55 20.04 44.55 44.68 0 24.63-19.98 44.68-44.55 44.68-24.57 0-44.55-20.05-44.55-44.68z" fill="#E6E7E8"></path><g transform="translate(24 30)"><path fill="#FFE130" d="M2.12 61.96h18.81v26.55H2.12z"></path><circle fill="#FFE130" cx="58.33" cy="37.53" r="3.99"></circle><g fill="#404041"><path d="M57.43.09C29.15.09 6.09 23.15 6.09 51.43c0 1.62 0 3.06.18 4.68l3.6-.36c-.18-1.44-.18-2.88-.18-4.32 0-26.3 21.44-47.74 47.74-47.74s47.74 21.44 47.74 47.74c0 25.76-20.36 46.84-45.94 47.74l3.96-3.96-2.52-2.52-8.47 8.47 8.47 8.47 2.52-2.52-4.32-4.32c28.46-.9 50.8-24.5 49.9-52.78C107.88 22.25 85.18.09 57.43.09z"></path><path d="M90.76 21.71H25.91v32.43h64.85V21.71zm-3.6 28.82H29.51V25.31h57.65v25.22z"></path><path d="M58.34 45.13c3.96 0 7.21-3.24 7.21-7.21 0-3.96-3.24-7.21-7.21-7.21-3.96 0-7.21 3.24-7.21 7.21 0 3.96 3.24 7.21 7.21 7.21zm0-10.81c1.98 0 3.6 1.62 3.6 3.6s-1.62 3.6-3.6 3.6a3.61 3.61 0 01-3.6-3.6c-.01-1.98 1.61-3.6 3.6-3.6zM36.72 32.51h3.6v-3.6h-7.21v7.21h3.6v-3.61zM40.32 43.32h-3.6v-3.6h-3.6v7.21h7.21v-3.61zM83.56 39.72h-3.6v3.6h-3.6v3.6h7.21v-7.2zM79.95 36.12h3.6v-7.21h-7.21v3.6h3.6v3.61zM42.12 36.12h5.4v3.6h-5.4zM69.14 36.12h5.4v3.6h-5.4zM11.5 77.55h3.6v5.4h-3.6z"></path><path d="M90.76 73.77c0-3.6-3.06-6.67-6.66-6.67-.54 0-1.26 0-1.8.18l-21.8 6.31c-.18 0-.54.18-.72 0l-5.04-.9c3.42-1.98 4.68-6.31 2.88-9.73-1.26-2.34-3.6-3.78-6.3-3.78h-22.7c-.9 0-1.8.18-2.7.72l-3.6 2.34v-2.7H.7v30.63h21.62v-4.5l17.84 7.39c1.08.54 2.52.54 3.6.18l42.16-13.15c2.86-.74 4.84-3.26 4.84-6.32zM18.7 86.56H4.29V63.14h7.21v10.81h3.6V63.14h3.6v23.42zm24.14 3.24c-.36.18-.9.18-1.26 0L22.3 81.69V66.38l5.4-3.06c.18-.18.54-.18.9-.18h22.52c1.98 0 3.6 1.62 3.6 3.6s-1.62 3.6-3.6 3.6H38.51v1.8l-.36 1.8 20.72 3.42c.72.18 1.62 0 2.34-.18l21.8-6.3c1.62-.54 3.24.54 3.78 2.16.54 1.62-.36 3.24-1.98 3.78L42.84 89.8z"></path></g></g></svg>