<?xml version="1.0" encoding="UTF-8" standalone="no"?>
<svg id="icon-sale" viewBox="0 0 163 163"><path d="M93.37 162.19c1.11 0 2.1-.79 2.34-1.89l2.72-12.22c.26-1.21 1.17-2.13 2.34-2.49 4.38-1.3 8.65-3.08 12.73-5.31 1.08-.59 2.38-.59 3.42.08l10.61 6.65c.94.59 2.19.45 2.98-.36l16.45-16.56c.81-.79.94-2.04.34-2.98l-6.72-10.57c-.66-1.04-.68-2.34-.09-3.42.92-1.72 1.74-3.48 2.51-5.25.01 0 .02-.01.04-.01.1-.24.19-.49.29-.73.17-.42.33-.84.49-1.26.27-.69.54-1.38.79-2.07.2-.56.37-1.13.56-1.7.17-.54.37-1.07.53-1.61.36-1.17 1.28-2.08 2.47-2.36l12.2-2.81a2.417 2.417 0 001.89-2.36v-.06c0-.02.01-.04.01-.06l-.08-23.34c0-1.13-.79-2.1-1.89-2.34l-12.23-2.74c-1.19-.26-2.11-1.17-2.47-2.34-.71-2.35-1.56-4.66-2.53-6.94-.02.01-.05.01-.07.01-.82-1.92-1.73-3.81-2.74-5.66-.59-1.08-.57-2.38.08-3.42l6.65-10.61c.6-.96.45-2.19-.34-3l-16.56-16.45c-.81-.79-2.06-.93-3-.32l-10.57 6.72c-1.02.64-2.32.68-3.4.09-4.1-2.21-8.38-3.95-12.76-5.23A3.382 3.382 0 0198 14.82L95.19 2.6A2.41 2.41 0 0092.83.73L69.49.81c-1.11 0-2.1.79-2.34 1.89l-2.72 12.22c-.26 1.21-1.17 2.13-2.34 2.49-4.38 1.3-8.65 3.08-12.73 5.31-1.08.59-2.38.59-3.42-.08l-10.61-6.65c-.94-.59-2.19-.45-2.98.36L15.9 32.91a2.38 2.38 0 00-.34 2.98l6.72 10.57c.66 1.04.68 2.34.09 3.42-.58 1.08-1.12 2.18-1.64 3.28-.02.01-.03.02-.05.04-.27.59-.5 1.19-.75 1.79-.25.59-.51 1.18-.74 1.77-.26.64-.5 1.29-.74 1.94-.38 1.03-.72 2.07-1.04 3.12-.07.23-.16.46-.23.7-.36 1.17-1.28 2.08-2.47 2.36l-12.2 2.81a2.417 2.417 0 00-1.89 2.36v.06c0 .02-.01.04-.01.06l.08 23.34c0 1.13.79 2.1 1.89 2.34l12.23 2.74c1.19.26 2.11 1.17 2.47 2.34.76 2.52 1.69 5 2.75 7.45.03 0 .06.01.08.02.76 1.74 1.58 3.45 2.5 5.13.59 1.08.57 2.38-.08 3.42l-6.65 10.61c-.6.96-.45 2.19.34 3l16.56 16.45c.81.79 2.06.93 3 .32l10.57-6.72c1.02-.64 2.32-.68 3.4-.09 4.1 2.21 8.38 3.95 12.76 5.23 1.17.34 2.08 1.27 2.36 2.45l2.81 12.22a2.41 2.41 0 002.36 1.87l23.33-.1zM36.86 81.5c0-24.64 19.98-44.68 44.55-44.68 24.57 0 44.55 20.04 44.55 44.68 0 24.63-19.98 44.68-44.55 44.68-24.57 0-44.55-20.05-44.55-44.68z" fill="#E6E7E8"></path><g transform="translate(40 25)"><circle fill="#FFE130" cx="63.53" cy="25.87" r="22.64"></circle><g fill="#404041"><path d="M70.35 18.99c1.3 1.08 1.95 2.57 1.95 4.47s-.65 3.39-1.95 4.47c-1.3 1.08-3.08 1.62-5.34 1.62h-4.32v6.86h-2.5V17.36h6.82c2.26.01 4.04.55 5.34 1.63zm-1.8 7.38c.83-.67 1.25-1.64 1.25-2.91 0-1.26-.42-2.23-1.25-2.91-.83-.67-2.04-1.01-3.62-1.01h-4.24v7.84h4.24c1.58 0 2.79-.34 3.62-1.01z"></path><path d="M55.79 31.78h7.22v2.09h-7.22z"></path></g><g fill="#404041"><path d="M63.53 7.16c-10.32 0-18.72 8.4-18.72 18.72h3.4c0-8.44 6.87-15.31 15.31-15.31V7.16h.01zM78.84 25.87c0 8.44-6.87 15.31-15.31 15.31v3.4c10.32 0 18.72-8.4 18.72-18.72h-3.41v.01z"></path><path d="M89.05 25.87C89.05 11.8 77.6.35 63.53.35c-9.77 0-18.27 5.53-22.56 13.61H2.27c-.94 0-1.7.76-1.7 1.7v88.47c0 .94.76 1.7 1.7 1.7h74.86c.94 0 1.7-.76 1.7-1.7v-57.9c6.2-4.65 10.22-12.03 10.22-20.36zM43.16 41.19H10.79V24.18H38.1c-.04.56-.09 1.13-.09 1.7 0 5.74 1.93 11.04 5.15 15.31zm32.28 61.25H3.98V17.37H39.5c-.39 1.11-.74 2.23-.98 3.4H9.08c-.94 0-1.7.76-1.7 1.7v20.42c0 .94.76 1.7 1.7 1.7h37.15c4.55 4.21 10.62 6.81 17.29 6.81 4.3 0 8.35-1.08 11.91-2.97v54.01h.01zM63.53 47.99c-12.2 0-22.12-9.92-22.12-22.12 0-12.2 9.92-22.12 22.12-22.12 12.2 0 22.12 9.92 22.12 22.12 0 12.2-9.92 22.12-22.12 22.12z"></path><path d="M19.29 51.39H9.08c-.94 0-1.7.76-1.7 1.7V63.3c0 .94.76 1.7 1.7 1.7h10.21c.94 0 1.7-.76 1.7-1.7V53.1c.01-.95-.76-1.71-1.7-1.71zm-1.7 10.21h-6.81v-6.81h6.81v6.81zM36.31 51.39H26.1c-.94 0-1.7.76-1.7 1.7V63.3c0 .94.76 1.7 1.7 1.7h10.21c.94 0 1.7-.76 1.7-1.7V53.1a1.7 1.7 0 00-1.7-1.71zm-1.7 10.21H27.8v-6.81h6.81v6.81zM53.32 51.39H43.11c-.94 0-1.7.76-1.7 1.7V63.3c0 .94.76 1.7 1.7 1.7h10.21c.94 0 1.7-.76 1.7-1.7V53.1a1.7 1.7 0 00-1.7-1.71zm-1.7 10.21h-6.81v-6.81h6.81v6.81zM19.29 68.41H9.08c-.94 0-1.7.76-1.7 1.7v10.21c0 .94.76 1.7 1.7 1.7h10.21c.94 0 1.7-.76 1.7-1.7V70.11c.01-.94-.76-1.7-1.7-1.7zm-1.7 10.21h-6.81v-6.81h6.81v6.81zM36.31 68.41H26.1c-.94 0-1.7.76-1.7 1.7v10.21c0 .94.76 1.7 1.7 1.7h10.21c.94 0 1.7-.76 1.7-1.7V70.11c0-.94-.76-1.7-1.7-1.7zm-1.7 10.21H27.8v-6.81h6.81v6.81zM53.32 68.41H43.11c-.94 0-1.7.76-1.7 1.7v10.21c0 .94.76 1.7 1.7 1.7h10.21c.94 0 1.7-.76 1.7-1.7V70.11c0-.94-.76-1.7-1.7-1.7zm-1.7 10.21h-6.81v-6.81h6.81v6.81zM58.43 70.11v27.22c0 .94.76 1.7 1.7 1.7h10.21c.94 0 1.7-.76 1.7-1.7V70.11c0-.94-.76-1.7-1.7-1.7H60.13c-.94 0-1.7.76-1.7 1.7zm3.4 1.7h6.81v23.82h-6.81V71.81zM19.29 85.42H9.08c-.94 0-1.7.76-1.7 1.7v10.21c0 .94.76 1.7 1.7 1.7h10.21c.94 0 1.7-.76 1.7-1.7V87.12c.01-.94-.76-1.7-1.7-1.7zm-1.7 10.21h-6.81v-6.81h6.81v6.81zM36.31 85.42H26.1c-.94 0-1.7.76-1.7 1.7v10.21c0 .94.76 1.7 1.7 1.7h10.21c.94 0 1.7-.76 1.7-1.7V87.12c0-.94-.76-1.7-1.7-1.7zm-1.7 10.21H27.8v-6.81h6.81v6.81zM53.32 85.42H43.11c-.94 0-1.7.76-1.7 1.7v10.21c0 .94.76 1.7 1.7 1.7h10.21c.94 0 1.7-.76 1.7-1.7V87.12c0-.94-.76-1.7-1.7-1.7zm-1.7 10.21h-6.81v-6.81h6.81v6.81z"></path></g></g></svg>