<?xml version="1.0" encoding="UTF-8" standalone="no"?>
<svg id="icon-security" viewBox="0 0 163 163"><path d="M93.48 162.45c1.11 0 2.1-.79 2.34-1.89l2.72-12.22c.26-1.21 1.17-2.13 2.34-2.49 4.38-1.3 8.65-3.08 12.73-5.31 1.08-.59 2.38-.59 3.42.08l10.61 6.65c.94.59 2.19.45 2.98-.36l16.45-16.56c.81-.79.94-2.04.34-2.98l-6.72-10.57c-.66-1.04-.68-2.34-.09-3.42.92-1.72 1.74-3.48 2.51-5.25.01 0 .02-.01.04-.01.1-.24.19-.49.29-.73.17-.42.33-.84.5-1.26.27-.69.54-1.38.79-2.07.2-.56.37-1.13.56-1.7.17-.54.37-1.07.53-1.61.36-1.17 1.28-2.08 2.47-2.36l12.2-2.81a2.417 2.417 0 001.89-2.36v-.06c0-.02.01-.04.01-.06l-.08-23.34c0-1.13-.79-2.1-1.89-2.34l-12.23-2.74c-1.19-.26-2.11-1.17-2.47-2.34-.71-2.35-1.56-4.66-2.53-6.94-.02.01-.05.01-.07.01-.82-1.92-1.73-3.81-2.74-5.66-.59-1.08-.57-2.38.08-3.42l6.65-10.61c.6-.96.45-2.19-.34-3l-16.56-16.45c-.81-.79-2.06-.93-3-.32l-10.57 6.72c-1.02.64-2.32.68-3.4.09-4.1-2.21-8.38-3.95-12.76-5.23a3.382 3.382 0 01-2.36-2.45L95.31 2.86A2.41 2.41 0 0092.95.99l-23.34.08c-1.11 0-2.1.79-2.34 1.89l-2.72 12.22c-.26 1.21-1.17 2.13-2.34 2.49-4.38 1.3-8.65 3.08-12.73 5.31-1.08.59-2.38.59-3.42-.08l-10.61-6.65c-.94-.59-2.19-.45-2.98.36L16.02 33.17a2.38 2.38 0 00-.34 2.98l6.72 10.57c.66 1.04.68 2.34.09 3.42-.58 1.08-1.12 2.18-1.64 3.28-.02.01-.03.02-.05.04-.27.59-.5 1.19-.75 1.79-.25.59-.51 1.18-.74 1.77-.26.64-.5 1.29-.74 1.94-.38 1.03-.72 2.07-1.04 3.12-.07.23-.16.46-.23.7-.36 1.17-1.28 2.08-2.47 2.36l-12.2 2.81a2.417 2.417 0 00-1.89 2.36v.06c0 .02-.01.04-.01.06l.08 23.34c0 1.13.79 2.1 1.89 2.34l12.24 2.74c1.19.26 2.11 1.17 2.47 2.34.76 2.52 1.69 5 2.75 7.45.03 0 .06.01.08.02.76 1.74 1.58 3.45 2.5 5.13.59 1.08.57 2.38-.08 3.42l-6.65 10.61c-.6.96-.45 2.19.34 3l16.56 16.45c.81.79 2.06.93 3 .32l10.57-6.72c1.02-.64 2.32-.68 3.4-.09 4.1 2.21 8.38 3.95 12.76 5.23 1.17.34 2.08 1.27 2.36 2.45l2.81 12.22a2.41 2.41 0 002.36 1.87l23.31-.1zm-56.5-80.68c0-24.64 19.98-44.68 44.55-44.68 24.56 0 44.55 20.04 44.55 44.68 0 24.63-19.98 44.68-44.55 44.68-24.57-.01-44.55-20.05-44.55-44.68z" fill="#E6E7E8"></path><path d="M77.92 99.02l27.43-27.43a5.01 5.01 0 000-7.09 5.01 5.01 0 00-7.09 0L74.37 88.39l-9.6-9.6a5.01 5.01 0 00-7.09 0 5.01 5.01 0 000 7.09l13.14 13.14c1.97 1.96 5.15 1.96 7.1 0z" fill="#FFE130"></path><g fill="#404041"><path d="M125 47.14c-14.56-3.99-29.2-10.2-42.34-17.96a2.23 2.23 0 00-2.26 0c-13.52 7.98-27.37 13.86-42.34 17.96-.97.26-1.64 1.14-1.64 2.15v22.74c0 23.42 10.8 38.91 19.86 47.79 9.76 9.56 21.12 14.85 25.25 14.85 4.13 0 15.49-5.29 25.25-14.85 9.06-8.88 19.86-24.38 19.86-47.79V49.28c-.01-1-.68-1.88-1.64-2.14zm-2.82 24.88c0 21.87-10.08 36.33-18.53 44.61-9.59 9.4-19.85 13.57-22.13 13.57-2.28 0-12.54-4.17-22.13-13.57-8.45-8.28-18.53-22.74-18.53-44.61V50.97c14.31-4.06 27.65-9.74 40.66-17.3 12.69 7.36 26.69 13.32 40.66 17.3v21.05z"></path><path d="M61.8 50.72a2.22 2.22 0 00-2.89-1.25c-3.98 1.57-8.06 3.01-12.13 4.29a2.22 2.22 0 00-1.56 2.12v8.59c0 1.23 1 2.23 2.23 2.23s2.23-1 2.23-2.23V57.5c3.65-1.18 7.3-2.49 10.87-3.89 1.14-.45 1.7-1.74 1.25-2.89zM66.03 51.14c.3 0 .6-.06.89-.19l.04-.02c1.13-.49 1.63-1.8 1.14-2.93a2.221 2.221 0 00-2.94-1.14l-.04.02a2.21 2.21 0 00-1.14 2.93 2.23 2.23 0 002.05 1.33zM108.04 100.63a2.227 2.227 0 00-3.08.65c-1.83 2.81-3.99 5.49-6.4 7.99a57.173 57.173 0 01-6.38 5.68 2.22 2.22 0 00-.42 3.12c.44.57 1.1.88 1.77.88.47 0 .94-.15 1.35-.46a60.43 60.43 0 006.88-6.12c2.61-2.7 4.93-5.6 6.92-8.65.68-1.04.39-2.42-.64-3.09zM87.01 118.43l-.13.08a2.225 2.225 0 002.23 3.85l.15-.09c1.06-.62 1.42-1.98.8-3.04a2.227 2.227 0 00-3.05-.8zM66.36 77.22a7.177 7.177 0 00-5.12-2.12c-1.93 0-3.75.75-5.12 2.12-2.82 2.82-2.82 7.41 0 10.23l13.14 13.14a7.177 7.177 0 005.12 2.12c1.93 0 3.75-.75 5.12-2.12l27.43-27.43c2.82-2.82 2.82-7.41 0-10.23a7.177 7.177 0 00-5.12-2.12c-1.93 0-3.75.75-5.12 2.12L74.38 85.24l-8.02-8.02zm33.48-11.14a2.77 2.77 0 011.97-.82c.74 0 1.44.29 1.97.82a2.782 2.782 0 010 3.94L76.35 97.45c-.53.53-1.23.82-1.97.82s-1.44-.29-1.97-.82L59.27 84.31a2.782 2.782 0 010-3.94 2.77 2.77 0 011.97-.82c.74 0 1.44.29 1.97.82l9.6 9.6c.42.42.98.65 1.57.65.59 0 1.16-.23 1.57-.65l23.89-23.89z"></path></g></svg>