<?xml version="1.0" encoding="UTF-8" standalone="no"?>
<svg id="icon-speed" viewBox="0 0 162 163"><path d="M93.04 162.45c1.11 0 2.1-.79 2.34-1.89l2.72-12.22c.26-1.21 1.17-2.13 2.34-2.49 4.38-1.3 8.65-3.08 12.73-5.31 1.08-.59 2.38-.59 3.42.08l10.61 6.65c.94.59 2.19.45 2.98-.36l16.45-16.56c.81-.79.94-2.04.34-2.98l-6.72-10.57c-.66-1.04-.68-2.34-.09-3.42.92-1.72 1.74-3.48 2.51-5.25.01 0 .02-.01.04-.01.1-.24.19-.49.29-.73.17-.42.33-.84.49-1.26.27-.69.54-1.38.79-2.07.2-.56.37-1.13.56-1.7.17-.54.37-1.07.53-1.61.36-1.17 1.28-2.08 2.47-2.36l12.2-2.81a2.417 2.417 0 001.89-2.36v-.06c0-.02.01-.04.01-.06l-.08-23.34c0-1.13-.79-2.1-1.89-2.34l-12.23-2.74c-1.19-.26-2.11-1.17-2.47-2.34-.71-2.35-1.56-4.66-2.53-6.94-.02.01-.05.01-.07.01-.82-1.92-1.73-3.81-2.74-5.66-.59-1.08-.57-2.38.08-3.42l6.65-10.61c.6-.96.45-2.19-.34-3l-16.56-16.45c-.81-.79-2.06-.93-3-.32l-10.57 6.72c-1.02.64-2.32.68-3.4.09-4.1-2.21-8.38-3.95-12.76-5.23a3.382 3.382 0 01-2.36-2.45L94.86 2.86A2.41 2.41 0 0092.5.99l-23.34.08c-1.11 0-2.1.79-2.34 1.89L64.1 15.18c-.26 1.21-1.17 2.13-2.34 2.49-4.38 1.3-8.65 3.08-12.73 5.31-1.08.59-2.38.59-3.42-.08L35 16.25c-.94-.59-2.19-.45-2.98.36L15.57 33.17a2.38 2.38 0 00-.34 2.98l6.72 10.57c.66 1.04.68 2.34.09 3.42-.58 1.08-1.12 2.18-1.64 3.28-.02.01-.03.02-.05.04-.27.59-.5 1.19-.75 1.79-.25.59-.51 1.18-.74 1.77-.26.64-.5 1.29-.74 1.94-.38 1.03-.72 2.07-1.04 3.12-.07.23-.16.46-.23.7-.36 1.17-1.28 2.08-2.47 2.36l-12.2 2.81a2.417 2.417 0 00-1.89 2.36v.06c0 .02-.01.04-.01.06l.08 23.34c0 1.13.79 2.1 1.89 2.34l12.23 2.74c1.19.26 2.11 1.17 2.47 2.34.76 2.52 1.69 5 2.75 7.45.03 0 .06.01.08.02.76 1.74 1.58 3.45 2.5 5.13.59 1.08.57 2.38-.08 3.42l-6.65 10.61c-.6.96-.45 2.19.34 3l16.56 16.45c.81.79 2.06.93 3 .32l10.57-6.72c1.02-.64 2.32-.68 3.4-.09 4.1 2.21 8.38 3.95 12.76 5.23 1.17.34 2.08 1.27 2.36 2.45l2.81 12.22a2.41 2.41 0 002.36 1.87l23.33-.1zm-56.5-80.68c0-24.64 19.98-44.68 44.55-44.68 24.57 0 44.55 20.04 44.55 44.68 0 24.63-19.98 44.68-44.55 44.68-24.57 0-44.55-20.05-44.55-44.68z" fill="#E6E7E8"></path><path fill="#FFE130" d="M91.8 96.55h29.99V83.7l25.71 21.42-25.71 19.28v-10.71H91.8z"></path><path d="M121.78 126.54c-.33 0-.65-.07-.96-.23-.73-.36-1.18-1.1-1.18-1.92v-8.57H91.79c-1.18 0-2.14-.96-2.14-2.14V96.55c0-1.18.96-2.14 2.14-2.14h27.85V83.7a2.134 2.134 0 013.51-1.64l25.71 21.42c.5.42.79 1.04.77 1.7-.02.66-.33 1.27-.86 1.66l-25.71 19.28c-.37.27-.82.42-1.28.42zm-27.84-14.99h27.85c1.18 0 2.14.96 2.14 2.14v6.43l20.11-15.08-20.11-16.76v8.28c0 1.18-.96 2.14-2.14 2.14H93.94v12.85zM76.8 75.13c-.45 0-.91-.15-1.28-.43l-25.7-19.28c-.52-.39-.84-1-.86-1.66-.02-.66.27-1.28.77-1.7l25.71-21.42a2.142 2.142 0 013.51 1.65V43h34.27c1.18 0 2.14.96 2.14 2.14 0 1.18-.96 2.14-2.14 2.14H76.81c-1.18 0-2.14-.96-2.14-2.14v-8.28L54.56 53.62 74.67 68.7v-6.43c0-1.18.96-2.14 2.14-2.14h36.41c1.18 0 2.14.96 2.14 2.14 0 1.18-.96 2.14-2.14 2.14H78.95v8.57c0 .81-.46 1.55-1.18 1.92-.31.16-.64.23-.97.23z" fill="#404041"></path><path d="M119.64 47.28h-6.43c-1.18 0-2.14-.96-2.14-2.14 0-1.18.96-2.14 2.14-2.14h6.43c1.18 0 2.14.96 2.14 2.14 0 1.18-.95 2.14-2.14 2.14zM143.21 53.71H117.5c-1.18 0-2.14-.96-2.14-2.14 0-1.18.96-2.14 2.14-2.14h25.71c1.18 0 2.14.96 2.14 2.14 0 1.18-.96 2.14-2.14 2.14zM147.49 60.14H132.5c-1.18 0-2.14-.96-2.14-2.14 0-1.18.96-2.14 2.14-2.14h14.99c1.18 0 2.14.96 2.14 2.14 0 1.18-.96 2.14-2.14 2.14zM128.21 70.85h-19.28c-1.18 0-2.14-.96-2.14-2.14 0-1.18.96-2.14 2.14-2.14h19.28c1.18 0 2.14.96 2.14 2.14 0 1.18-.95 2.14-2.14 2.14zM147.49 66.56h-6.43c-1.18 0-2.14-.96-2.14-2.14 0-1.18.96-2.14 2.14-2.14h6.43c1.18 0 2.14.96 2.14 2.14 0 1.18-.96 2.14-2.14 2.14zM65.68 133.38c-8.86 0-17.04-4.03-22.44-11.07-.63-.82-.58-1.99.12-2.75.7-.77 1.86-.91 2.73-.36 2.78 1.77 7.53 2.34 11.03 2.47-1.48-1.53-4.4-3.21-10.1-3.21-12.95 0-32.72-13.48-33.55-14.06-.88-.6-1.18-1.77-.7-2.72.48-.96 1.59-1.41 2.6-1.08 3.07 1.03 10.5.86 20.17-1.83 5.89-1.64 9.63-3.77 11.08-5.05a13.8 13.8 0 00-2.08-.14c-10.79 0-13.9-4.2-14.22-4.68-.46-.7-.48-1.6-.04-2.32.44-.71 1.24-1.1 2.09-1 5.1.63 11.02-1.26 15.07-2.97 1.09-.46 2.35.05 2.81 1.14.46 1.09-.05 2.35-1.14 2.81-2.2.93-4.92 1.91-7.82 2.58.96.1 2.04.16 3.25.16 1.6 0 6.47 0 6.94 3.47.77 5.63-13.2 9.69-14.8 10.13-4.85 1.35-9.51 2.18-13.52 2.46 6.73 3.86 16.74 8.81 23.86 8.81 14.09 0 15.73 8.87 15.79 9.25.1.6-.06 1.21-.43 1.68-.38.47-.94.77-1.54.81-.25.02-3.59.22-7.53-.23 3.67 2.22 7.92 3.42 12.37 3.42 6.65 0 12.82-2.66 17.4-7.48 4.57-4.82 6.9-11.14 6.54-17.8-.63-12.03-10.55-21.97-22.58-22.64-4.09-.23-8.22.6-11.88 2.38a2.15 2.15 0 01-2.87-.98 2.15 2.15 0 01.98-2.87c4.31-2.11 9.15-3.09 14-2.81 14.18.79 25.87 12.51 26.62 26.69.41 7.84-2.33 15.29-7.71 20.97-5.39 5.69-12.67 8.82-20.5 8.82zM108.93 92.27H98.22c-1.18 0-2.14-.96-2.14-2.14 0-1.18.96-2.14 2.14-2.14h10.71c1.18 0 2.14.96 2.14 2.14a2.13 2.13 0 01-2.14 2.14zM113.22 122.26H98.23c-1.18 0-2.14-.96-2.14-2.14 0-1.18.96-2.14 2.14-2.14h14.99c1.18 0 2.14.96 2.14 2.14 0 1.18-.96 2.14-2.14 2.14z" fill="#404041"></path><path d="M85.37 105.12c0-4.73-3.84-8.57-8.57-8.57s-19.28 3.84-19.28 8.57 14.55 8.57 19.28 8.57 8.57-3.84 8.57-8.57z" fill="#FFE130"></path><path d="M128.21 40.86h-19.28c-1.18 0-2.14-.96-2.14-2.14 0-1.18.96-2.14 2.14-2.14h19.28c1.18 0 2.14.96 2.14 2.14 0 1.18-.95 2.14-2.14 2.14z" fill="#404041"></path></svg>